<svg width="56" height="56" xmlns="http://www.w3.org/2000/svg">
 <!-- Created with Method Draw - http://github.com/duopixel/Method-Draw/ -->
 <g>
  <title>file_type_matlab</title>
  <rect fill="#fff" id="canvas_background" height="58" width="58" y="-1" x="-1"/>
  <g display="none" overflow="visible" y="0" x="0" height="100%" width="100%" id="canvasGrid">
   <rect fill="url(#gridpattern)" stroke-width="0" y="0" x="0" height="100%" width="100%"/>
  </g>
 </g>
 <g>
  <title>Layer 1</title>
<path d="M2,17.55l7.97-3.22a20.7,20.7,0,0,1,2.72-2.95c.66-.35,1.9-.16,4.17-2.98,2.2-2.75,2.9-5.1,3.93-5.1,1.63,0,2.83,3.52,4.65,8.85A115.629,115.629,0,0,0,30,24.12c-1.9-1.77-3.52-3.68-5.37-3.63-1.72.04-3.63,2.08-5.72,4.7-1.66,2.1-3.86,3.54-4.72,3.51,0,0-2.22-6.28-4.08-7.3a2.641,2.641,0,0,0-2.39.2L2,17.54Z" style="fill:#49d"/><path d="M19.8,4.02c-.67.9-1.48,2.55-2.94,4.38-2.27,2.82-3.5,2.63-4.17,2.98a19.674,19.674,0,0,0-2.72,2.95l3.3,2.41c2.8-3.82,4.3-7.96,5.47-10.64A13.579,13.579,0,0,1,19.8,4.02Z" style="fill:url(#a)"/><path d="M20.8,3.3c-2.18,0-3.67,11.48-11.72,17.89,2.26-.37,4.22,5.24,5.12,7.51,4-.68,7.2-8.33,10.43-8.21,1.85.07,3.47,1.86,5.37,3.63C25.66,15,23.63,3.3,20.8,3.3Z" style="fill:url(#b)"/></svg>
  <text transform="matrix(1,0,0,1,0,0) " style="cursor: text;" font-style="normal" font-weight="normal" xml:space="preserve" text-anchor="start" font-family="'Montserrat Black'" font-size="30" id="svg_1" y="38.75" x="16.57031" stroke-width="0" stroke="#000" fill="#000000">X</text>
 </g>
</svg>
